<svg id="ada1a502-fa80-4516-98fa-003b5e3fc501" data-name="Layer 1" xmlns="http://www.w3.org/2000/svg" viewBox="0 0 91.8 128.88"><title>binIcon</title><path d="M319.32,281.58v64.88a6.68,6.68,0,0,1-2.67,5.34l-26.88,20.08a6.65,6.65,0,0,1-4,1.32H261.05a6.65,6.65,0,0,1-4-1.32L230.19,351.8a6.68,6.68,0,0,1-2.67-5.34V281.58a6.66,6.66,0,0,1,6.66-6.66h78.48A6.66,6.66,0,0,1,319.32,281.58Z" transform="translate(-227.52 -244.32)" style="fill:#1d1d1b"/><path d="M319.32,256.32V266.4a1.68,1.68,0,0,1-1.68,1.68H229.2a1.68,1.68,0,0,1-1.68-1.68V256.32a1.68,1.68,0,0,1,1.68-1.68h13A1.68,1.68,0,0,0,243.9,253v-7a1.68,1.68,0,0,1,1.68-1.68h55.68a1.68,1.68,0,0,1,1.68,1.68v7a1.68,1.68,0,0,0,1.68,1.68h13A1.68,1.68,0,0,1,319.32,256.32Z" transform="translate(-227.52 -244.32)" style="fill:#1d1d1b"/><rect x="74.76" y="46.66" width="3.72" height="56.9" style="fill:#fff"/><rect x="53.34" y="46.66" width="3.72" height="56.9" style="fill:#fff"/><rect x="33.78" y="46.66" width="3.72" height="56.9" style="fill:#fff"/><rect x="14.22" y="46.66" width="3.72" height="56.9" style="fill:#fff"/></svg>