<svg id="b66f20e2-ffe6-4484-8ed0-99e0e1b5d48b" data-name="Layer 1" xmlns="http://www.w3.org/2000/svg" xmlns:xlink="http://www.w3.org/1999/xlink" viewBox="0 0 408.8 591.99"><defs><linearGradient id="e90df138-9012-4111-b5d7-9b02e3b8a9d7" x1="155.85" y1="403.06" x2="252.95" y2="403.06" gradientUnits="userSpaceOnUse"><stop offset="0" stop-color="#3c3c3b"/><stop offset="1" stop-color="#7d4e24"/></linearGradient><linearGradient id="a1052067-a421-4ef1-b8f5-5e3c6cf2d660" x1="249.09" y1="591.66" x2="346.19" y2="591.66" xlink:href="#e90df138-9012-4111-b5d7-9b02e3b8a9d7"/><linearGradient id="af8996b5-502c-4b99-a8cb-0271607aa9cb" x1="93.24" y1="273.7" x2="502.03" y2="273.7" xlink:href="#e90df138-9012-4111-b5d7-9b02e3b8a9d7"/></defs><title>scrollbn</title><polygon points="252.95 325.61 252.95 383.41 155.85 480.51 155.85 422.71 252.95 325.61" style="fill:url(#e90df138-9012-4111-b5d7-9b02e3b8a9d7)"/><path d="M249.09,605l97.1-97.1v119a48.55,48.55,0,0,1-97.1,0Z" transform="translate(-93.24 -83.46)" style="fill:url(#a1052067-a421-4ef1-b8f5-5e3c6cf2d660)"/><path d="M478.12,311.68H346.19v55.16l-97.1,97.1V311.68H117.16c-21.27,0-31.92-25.71-16.88-40.75L280.76,90.45a23.88,23.88,0,0,1,33.76,0L495,270.93C510,286,499.38,311.68,478.12,311.68Z" transform="translate(-93.24 -83.46)" style="fill:url(#af8996b5-502c-4b99-a8cb-0271607aa9cb)"/></svg>